<?xml version="1.0" encoding="UTF-8"?>
<svg width="100px" height="100px" viewBox="0 0 100 100" version="1.1" xmlns="http://www.w3.org/2000/svg" xmlns:xlink="http://www.w3.org/1999/xlink">
    <title>编组</title>
    <g id="页面-1" stroke="none" stroke-width="1" fill="none" fill-rule="evenodd">
        <g id="Apple-TV备份-4" transform="translate(-830.000000, -472.000000)">
            <g id="编组" transform="translate(830.000000, 472.000000)">
                <rect id="矩形" x="0" y="0" width="100" height="100"></rect>
                <path d="M53.6058394,93 C60.6017843,93 67.1200324,91.3588889 73.1605839,88.0766667 C79.2011354,84.7944444 84.1321979,80.3533333 87.9537713,74.7533333 L87.9537713,74.7533333 L85.2725061,72.7 C81.7591241,77.8955556 77.2133009,82.0177778 71.6350365,85.0666667 C66.0567721,88.1155556 60.0470397,89.64 53.6058394,89.64 C48.4282238,89.64 43.474047,88.6211111 38.743309,86.5833333 C34.012571,84.5455556 29.9367397,81.8 26.5158151,78.3466667 C23.0948905,74.8933333 20.3751014,70.7788889 18.3564477,66.0033333 C16.337794,61.2277778 15.3284672,56.2266667 15.3284672,51 C15.3284672,45.7733333 16.337794,40.7722222 18.3564477,35.9966667 C20.3751014,31.2211111 23.0948905,27.1066667 26.5158151,23.6533333 C29.9367397,20.2 34.012571,17.4544444 38.743309,15.4166667 C43.474047,13.3788889 48.4282238,12.36 53.6058394,12.36 C60.0470397,12.36 66.0490673,13.8688889 71.6119221,16.8866667 C77.174777,19.9044444 81.7128954,24.0111111 85.2262774,29.2066667 L85.2262774,29.2066667 L88,27.3866667 C84.1784266,21.7244444 79.2473642,17.2444444 73.2068127,13.9466667 C67.1662612,10.6488889 60.6326034,9 53.6058394,9 C47.9659367,9 42.580292,10.1122222 37.4489051,12.3366667 C32.3175182,14.5611111 27.8949716,17.5477778 24.1812652,21.2966667 C20.4675588,25.0455556 17.5089213,29.51 15.3053528,34.69 C13.1017843,39.87 12,45.3066667 12,51 C12,56.6933333 13.1017843,62.13 15.3053528,67.31 C17.5089213,72.49 20.4675588,76.9544444 24.1812652,80.7033333 C27.8949716,84.4522222 32.3175182,87.4388889 37.4489051,89.6633333 C42.580292,91.8877778 47.9659367,93 53.6058394,93 Z M54.0101302,86 C59.9068982,86 65.3945972,84.6147487 70.4732272,81.844246 C75.5518572,79.0737434 79.696575,75.3093034 82.9073806,70.5509259 L82.9073806,70.5509259 L80.2214182,68.531746 C77.3193439,72.8518519 73.5682586,76.2797619 68.9681621,78.8154762 C64.3680656,81.3511905 59.382055,82.6190476 54.0101302,82.6190476 C49.7187651,82.6190476 45.6126387,81.7738095 41.6917511,80.0833333 C37.7708635,78.3928571 34.397974,76.1154101 31.5730825,73.2509921 C28.748191,70.3865741 26.5021708,66.9664903 24.8350217,62.9907407 C23.1678726,59.0149912 22.3342981,54.8514109 22.3342981,50.5 C22.3342981,46.1485891 23.1678726,41.9850088 24.8350217,38.0092593 C26.5021708,34.0335097 28.748191,30.6134259 31.5730825,27.7490079 C34.397974,24.8845899 37.7708635,22.6071429 41.6917511,20.9166667 C45.6126387,19.2261905 49.7187651,18.3809524 54.0101302,18.3809524 C59.3511819,18.3809524 64.3294742,19.6409832 68.9450072,22.161045 C73.5605403,24.6811067 77.3193439,28.1011905 80.2214182,32.4212963 L80.2214182,32.4212963 L83,30.5899471 C79.7891944,25.8002646 75.6367583,22.0045194 70.5426918,19.2027116 C65.4486252,16.4009039 59.9377713,15 54.0101302,15 C47.6811384,15 41.8306802,16.5887346 36.4587554,19.7662037 C31.0868307,22.9436728 26.8340569,27.2559524 23.7004342,32.7030423 C20.5668114,38.1501323 19,44.0824515 19,50.5 C19,56.9175485 20.5668114,62.8498677 23.7004342,68.2969577 C26.8340569,73.7440476 31.0868307,78.0563272 36.4587554,81.2337963 C41.8306802,84.4112654 47.6811384,86 54.0101302,86 Z M53.4651163,79 C58.2713178,79 62.744186,77.8823529 66.8837209,75.6470588 C71.0232558,73.4117647 74.3953488,70.369281 77,66.5196078 L77,66.5196078 L74.255814,64.6102941 C71.9612403,67.994281 68.9844961,70.6797386 65.3255814,72.6666667 C61.6666667,74.6535948 57.7131783,75.6470588 53.4651163,75.6470588 C48.9069767,75.6470588 44.7054264,74.5216503 40.8604651,72.2708333 C37.0155039,70.0200163 33.9689922,66.9697712 31.7209302,63.120098 C29.4728682,59.2704248 28.3488372,55.0637255 28.3488372,50.5 C28.3488372,45.9362745 29.4728682,41.7295752 31.7209302,37.879902 C33.9689922,34.0302288 37.0155039,30.9799837 40.8604651,28.7291667 C44.7054264,26.4783497 48.9069767,25.3529412 53.4651163,25.3529412 C57.7131783,25.3529412 61.6589147,26.3386438 65.3023256,28.310049 C68.9457364,30.2814542 71.9147287,32.9436275 74.2093023,36.2965686 L74.2093023,36.2965686 L77,34.4803922 C74.3953488,30.630719 71.0232558,27.5882353 66.8837209,25.3529412 C62.744186,23.1176471 58.2713178,22 53.4651163,22 C48.3178295,22 43.5581395,23.2728758 39.1860465,25.8186275 C34.8139535,28.3643791 31.3565891,31.8259804 28.8139535,36.2034314 C26.2713178,40.5808824 25,45.3464052 25,50.5 C25,55.6535948 26.2713178,60.4191176 28.8139535,64.7965686 C31.3565891,69.1740196 34.8139535,72.6356209 39.1860465,75.1813725 C43.5581395,77.7271242 48.3178295,79 53.4651163,79 Z M53.8947368,73 C57.5750487,73 61.005848,72.1381766 64.1871345,70.4145299 C67.3684211,68.6908832 69.957115,66.3561254 71.9532164,63.4102564 L71.9532164,63.4102564 L69.2397661,61.4358974 C67.5555556,63.9430199 65.3645224,65.9330484 62.6666667,67.4059829 C59.9688109,68.8789174 57.0448343,69.6153846 53.8947368,69.6153846 C48.7797271,69.6153846 44.4132554,67.7977208 40.7953216,64.1623932 C37.1773879,60.5270655 35.3684211,56.1396011 35.3684211,51 C35.3684211,45.8603989 37.1773879,41.4729345 40.7953216,37.8376068 C44.4132554,34.2022792 48.7797271,32.3846154 53.8947368,32.3846154 C57.0448343,32.3846154 59.9688109,33.1132479 62.6666667,34.5705128 C65.3645224,36.0277778 67.5555556,38.0099715 69.2397661,40.517094 L69.2397661,40.517094 L72,38.6837607 C70.0038986,35.7065527 67.4152047,33.3482906 64.2339181,31.6089744 C61.0526316,29.8696581 57.6062378,29 53.8947368,29 C50.9317739,29 48.1013645,29.5797721 45.4035088,30.7393162 C42.705653,31.8988604 40.374269,33.465812 38.4093567,35.4401709 C36.4444444,37.4145299 34.8849903,39.7571225 33.7309942,42.4679487 C32.5769981,45.1787749 32,48.022792 32,51 C32,53.977208 32.5769981,56.8212251 33.7309942,59.5320513 C34.8849903,62.2428775 36.4444444,64.5854701 38.4093567,66.5598291 C40.374269,68.534188 42.705653,70.1011396 45.4035088,71.2606838 C48.1013645,72.4202279 50.9317739,73 53.8947368,73 Z" id="C" fill="#000000" fill-rule="nonzero"></path>
            </g>
        </g>
    </g>
</svg>